<svg xmlns="http://www.w3.org/2000/svg" xml:space="preserve" width="599.99731" height="600" viewBox="0 0 599.99731 600"><defs><clipPath id="a" clipPathUnits="userSpaceOnUse"><path d="M835 765c-55.228 0-100-44.771-100-100V415c0-55.229 44.772-100 100-100h250c55.228 0 99.999 44.771 99.999 100v250c0 55.229-44.771 100-99.999 100z"/></clipPath></defs><g clip-path="url(#a)" transform="matrix(1.33333 0 0 -1.33333 -980.001 1020)"><path d="M1185 315H735.001v450H1185Z" style="fill:#000;fill-opacity:1;fill-rule:nonzero;stroke:none"/><path d="M853.772 478.987h-59.386v122.026h59.386z" style="fill:#fff;fill-opacity:1;fill-rule:nonzero;stroke:none"/><path d="M0 0h-59.387l46.842 122.026h59.386z" style="fill:#fff;fill-opacity:1;fill-rule:nonzero;stroke:none" transform="translate(913.159 478.987)"/><path d="M0 0h59.387L12.545 122.026h-59.387z" style="fill:#fff;fill-opacity:1;fill-rule:nonzero;stroke:none" transform="translate(1006.841 478.987)"/><path d="M1125.614 478.987h-59.386v122.026h59.386z" style="fill:#fff;fill-opacity:1;fill-rule:nonzero;stroke:none"/></g></svg>