<svg width="200" height="50" viewBox="0 0 200 50" fill="none" xmlns="http://www.w3.org/2000/svg">
<path fill-rule="evenodd" clip-rule="evenodd" d="M40.574 3H18.665C18.422 3.001 18.147 3.019 17.911 3.052C17.701 3.081 17.492 3.122 17.284 3.177L17.212 3.196L17.14 3.217C16.96 3.269 16.783 3.33 16.611 3.4C16.595 3.407 16.579 3.413 16.563 3.42L16.532 3.434L12.336 5.359C12.258 5.391 12.182 5.429 12.107 5.471L12.088 5.482L12.054 5.502C11.999 5.535 11.947 5.57 11.896 5.607L11.867 5.628L11.844 5.647C11.784 5.693 11.727 5.742 11.673 5.794L11.653 5.814L11.63 5.837L11.611 5.857C11.558 5.912 11.509 5.968 11.463 6.028C11.453 6.041 11.442 6.054 11.432 6.068L11.423 6.081C11.38 6.14 11.339 6.202 11.301 6.266L11.29 6.285L11.27 6.319C11.234 6.384 11.202 6.452 11.173 6.519L11.16 6.551C11.132 6.619 11.107 6.69 11.087 6.762L11.085 6.768L11.079 6.79L11.071 6.819C11.05 6.902 11.033 6.985 11.021 7.069C11.008 7.164 11 7.259 11 7.356V45.647C11 45.923 11.11 46.188 11.306 46.383C11.715 46.79 12.376 46.79 12.785 46.383L19.066 40.122H37.288C38.498 40.122 39.479 39.144 39.479 37.939V9.551C39.479 8.345 38.498 7.367 37.288 7.367H15.724L15.706 7.366C15.687 7.366 15.67 7.364 15.652 7.361C15.631 7.358 15.61 7.354 15.589 7.349L15.574 7.345L15.556 7.339C15.544 7.335 15.533 7.331 15.521 7.326L15.513 7.323L15.494 7.314C15.481 7.308 15.469 7.301 15.456 7.294L15.45 7.29L15.434 7.28C15.423 7.273 15.413 7.266 15.404 7.259L15.39 7.249C15.375 7.237 15.361 7.225 15.348 7.212L15.332 7.196L15.319 7.182C15.311 7.172 15.303 7.162 15.295 7.153L15.29 7.146L15.285 7.14L15.276 7.126C15.27 7.118 15.264 7.109 15.259 7.1L15.251 7.087L15.241 7.068C15.234 7.055 15.228 7.043 15.223 7.03L15.22 7.022L15.213 7.004C15.209 6.992 15.205 6.981 15.201 6.968L15.197 6.954L15.192 6.933C15.189 6.919 15.187 6.906 15.185 6.892L15.184 6.882L15.182 6.863C15.181 6.851 15.181 6.839 15.18 6.826V6.811V6.793C15.18 6.774 15.182 6.757 15.185 6.739C15.187 6.718 15.192 6.697 15.197 6.676L15.201 6.661L15.207 6.643C15.211 6.631 15.215 6.62 15.22 6.608L15.223 6.6L15.23 6.583C15.235 6.571 15.241 6.561 15.247 6.55L15.254 6.536L15.274 6.505L15.287 6.487L15.295 6.476L15.307 6.461C15.315 6.451 15.324 6.442 15.332 6.434L15.337 6.428L15.348 6.418L15.362 6.404C15.371 6.396 15.381 6.388 15.391 6.381L15.405 6.371L15.418 6.361C15.426 6.355 15.436 6.349 15.444 6.344L15.457 6.336L15.476 6.325C15.488 6.319 15.501 6.313 15.514 6.307L15.522 6.304L17.733 5.431L17.78 5.411C17.884 5.369 17.989 5.332 18.098 5.301L18.141 5.289L18.184 5.277L18.231 5.265C18.34 5.239 18.45 5.217 18.56 5.202C18.703 5.181 18.847 5.172 18.993 5.171H40.628C42.418 5.2 43.86 6.655 43.86 8.446V37.233V37.266C43.855 37.787 43.728 38.279 43.506 38.714C43.349 39.023 43.522 39.217 43.803 39.012C45.166 38.019 46.051 36.413 46.051 34.602V8.459C46.051 5.444 43.599 3 40.574 3Z" fill="#FF7914"/>
<path fill-rule="evenodd" clip-rule="evenodd" d="M28.2279 15.3718C27.5999 14.3078 26.2469 13.9268 25.1869 14.5468L19.2759 18.0018C18.4359 18.4928 17.9039 19.4638 18.1019 20.4258C18.4309 22.0268 20.1389 22.7028 21.4079 21.9618L26.1909 19.1648C26.2419 19.1348 26.2949 19.2018 26.2539 19.2448L24.0859 21.5988C24.0779 21.6088 24.0719 21.6208 24.0719 21.6348V31.7538C24.0719 32.9378 24.9209 34.0078 26.0849 34.1188C27.4039 34.2448 28.5239 33.0638 28.5239 31.7538V16.5008C28.5249 16.0658 28.3909 15.6458 28.2279 15.3718Z" fill="white"/>
<path fill-rule="evenodd" clip-rule="evenodd" d="M77.7618 30.0098C77.7228 26.8248 76.2378 24.9118 72.7888 23.5168L72.5088 23.4068C72.4138 23.3708 72.3178 23.3348 72.2198 23.2988L71.9228 23.1928C71.7728 23.1398 71.6188 23.0888 71.4618 23.0378L71.1438 22.9358L70.8158 22.8348L70.4798 22.7368C70.4228 22.7198 70.3658 22.7048 70.3088 22.6878L69.9588 22.5918L69.1478 22.3778L68.7038 22.2578L68.2848 22.1408L68.0198 22.0648L67.6428 21.9528L67.4048 21.8798L67.1768 21.8068L66.9588 21.7348L66.7508 21.6638L66.5528 21.5928L66.3648 21.5228L66.1858 21.4518L66.0158 21.3818C65.9878 21.3698 65.9608 21.3588 65.9338 21.3468L65.7778 21.2758L65.6298 21.2048L65.4898 21.1338C65.4678 21.1208 65.4458 21.1098 65.4238 21.0978L65.2968 21.0248C65.2548 21.0008 65.2158 20.9758 65.1768 20.9518L65.0648 20.8768L64.9608 20.8018L64.8638 20.7198L64.7738 20.6418C64.5428 20.4308 64.3848 20.2038 64.2828 19.9478L64.2468 19.8498L64.2308 19.7998L64.2028 19.6978C64.1938 19.6638 64.1858 19.6298 64.1788 19.5938L64.1598 19.4868C64.1568 19.4688 64.1538 19.4508 64.1518 19.4318L64.1388 19.3198C64.1368 19.2998 64.1358 19.2808 64.1338 19.2618L64.1268 19.1438C64.1248 19.0828 64.1228 19.0228 64.1228 18.9598V18.8858C64.1228 17.4268 65.4608 16.4428 67.5968 16.4428C69.3188 16.4428 71.0868 17.0298 73.0638 18.2078C73.5058 18.4688 73.9128 18.5908 74.3978 18.5908C75.7678 18.5908 76.8478 17.5178 76.8478 16.1478C76.8478 15.2228 76.3758 14.4558 75.6898 14.0458L75.5008 13.9258C73.2188 12.5098 70.5978 11.7798 67.6698 11.7798C62.4768 11.7798 58.8928 14.8638 58.8928 19.4048L58.8938 19.6118C58.9258 22.8558 60.1418 24.6158 63.3188 25.9598L63.5808 26.0678C63.6698 26.1028 63.7598 26.1388 63.8518 26.1738L64.1308 26.2778L64.4188 26.3818L64.7158 26.4848C64.7658 26.5018 64.8168 26.5178 64.8678 26.5348L65.1788 26.6358L65.4988 26.7358L65.8278 26.8348L66.1658 26.9328L66.5138 27.0298L66.8718 27.1278L67.4038 27.2668L67.8798 27.3948L68.1808 27.4778L68.4708 27.5598L68.7478 27.6418L69.1418 27.7628L69.3898 27.8428L69.6258 27.9228C69.6648 27.9358 69.7028 27.9488 69.7398 27.9628L69.9598 28.0418C69.9958 28.0548 70.0308 28.0678 70.0648 28.0818L70.2688 28.1608C70.3018 28.1748 70.3338 28.1868 70.3668 28.2008L70.5548 28.2798L70.7328 28.3608L70.9008 28.4408C70.9828 28.4818 71.0608 28.5228 71.1348 28.5638L71.2788 28.6458C72.2098 29.2008 72.5308 29.8228 72.5308 30.6968V30.7708C72.5308 32.4138 71.0438 33.3988 68.6548 33.3988C66.2618 33.3988 64.1028 32.5968 62.0048 31.0338C61.5638 30.7208 61.0938 30.5498 60.5008 30.5498C59.1308 30.5498 58.0508 31.6218 58.0508 32.9918C58.0508 33.7948 58.4398 34.5628 59.0348 34.9888C61.7988 36.9978 65.1468 38.0628 68.5458 38.0628C74.1578 38.0628 77.7618 35.0978 77.7618 30.2148V30.0098Z" fill="black"/>
<path fill-rule="evenodd" clip-rule="evenodd" d="M116.088 11.7778C108.831 11.7778 102.947 17.6618 102.947 24.9188C102.947 32.1768 108.831 38.0598 116.088 38.0598C123.345 38.0598 129.229 32.1768 129.229 24.9188C129.229 17.6618 123.345 11.7778 116.088 11.7778ZM116.088 32.9488C111.653 32.9488 108.058 29.3538 108.058 24.9188C108.058 20.4838 111.654 16.8888 116.088 16.8888C120.522 16.8888 124.118 20.4848 124.118 24.9188C124.118 29.3538 120.523 32.9488 116.088 32.9488Z" fill="black"/>
<path fill-rule="evenodd" clip-rule="evenodd" d="M99.4802 12.1431H82.3242C81.0142 12.1431 79.9512 13.2061 79.9512 14.5161C79.9512 15.8281 81.0142 16.8901 82.3242 16.8901H87.7992C88.0012 16.8901 88.1642 17.0531 88.1642 17.2551V37.6931C88.1642 37.7951 88.2062 37.8911 88.2792 37.9601C88.4262 38.0981 88.6572 38.0891 88.7952 37.9421L93.5402 32.8791C93.6032 32.8121 93.6392 32.7241 93.6392 32.6311V17.2561C93.6392 17.0541 93.8022 16.8911 94.0042 16.8911H99.4792C100.79 16.8911 101.852 15.8281 101.852 14.5171C101.853 13.2061 100.79 12.1431 99.4802 12.1431Z" fill="black"/>
<path d="M185.443 37.694C187.257 37.694 188.728 36.2233 188.728 34.409C188.728 32.5948 187.257 31.124 185.443 31.124C183.629 31.124 182.158 32.5948 182.158 34.409C182.158 36.2233 183.629 37.694 185.443 37.694Z" fill="black"/>
<path fill-rule="evenodd" clip-rule="evenodd" d="M172.139 29.0351L162.465 13.3561C162 12.6021 161.176 12.1431 160.29 12.1431H156.529C156.463 12.1431 156.395 12.1621 156.338 12.1981C156.166 12.3031 156.113 12.5281 156.219 12.7001L166.353 29.1231C166.424 29.2381 166.461 29.3711 166.461 29.5071V36.9651C166.461 37.3681 166.788 37.6941 167.191 37.6941H171.572C171.974 37.6941 172.301 37.3681 172.301 36.9651V29.6101C172.301 29.4071 172.245 29.2081 172.139 29.0351Z" fill="black"/>
<path fill-rule="evenodd" clip-rule="evenodd" d="M181.865 12.1431H178.101C177.218 12.1431 176.398 12.5991 175.931 13.3481L171.508 20.4561C171.435 20.5731 171.435 20.7241 171.508 20.8421L174.181 24.5511C174.21 24.5981 174.25 24.6381 174.298 24.6671C174.469 24.7741 174.694 24.7221 174.8 24.5511L182.174 12.7001C182.21 12.6421 182.23 12.5761 182.23 12.5081C182.23 12.3071 182.066 12.1431 181.865 12.1431Z" fill="black"/>
<path fill-rule="evenodd" clip-rule="evenodd" d="M155.077 37.112L148.86 28.752C152.106 27.529 154.416 24.395 154.416 20.722C154.416 15.985 150.575 12.144 145.838 12.144H136.165C134.754 12.144 133.609 13.288 133.609 14.699V37.33C133.609 37.531 133.773 37.694 133.974 37.694H138.355C138.556 37.694 138.719 37.531 138.719 37.33V29.664C138.719 29.463 138.882 29.299 139.084 29.299H143.06C143.29 29.299 143.508 29.408 143.646 29.594L149.56 37.548C149.629 37.64 149.738 37.694 149.853 37.694H154.785C154.863 37.694 154.939 37.669 155.002 37.623C155.164 37.502 155.198 37.273 155.077 37.112ZM145.982 24.189H139.086C138.884 24.189 138.721 24.025 138.721 23.824V17.254C138.721 17.052 138.884 16.889 139.086 16.889H145.982L146.082 16.891C147.872 16.949 149.307 18.56 149.307 20.539C149.306 22.555 147.818 24.189 145.982 24.189Z" fill="black"/>
</svg>
