<svg xmlns="http://www.w3.org/2000/svg" xml:space="preserve" width="1000px" height="1000px" x="0px" y="0px" viewBox="0 0 1000 1000"><path fill="#00D564" d="M0 0h1000v1000H0z"/><path fill="#FFF" d="M834.424 642.725a3.668 3.668 0 0 1-3.398 3.301l-32.373.996a3.78 3.78 0 0 1-3.438-1.543l-42.666-61.572c-.859-1.152-2.764-.596-2.734.83l-.107 61.963c-.02 1.943-1.543 3.545-3.486 3.633l-38.164 1.758a3.732 3.732 0 0 1-4.033-3.408v-.166l1.582-140.103a3.61 3.61 0 0 1 3.643-3.608h.068l34.082 1.313a3.782 3.782 0 0 1 3.164 1.636l46.758 70.537c.811 1.201 2.705.703 2.764-.703l.752-67.603a3.648 3.648 0 0 1 3.73-3.423l35.43.366c2.197 0 3.955 1.787 3.789 3.892l-5.363 131.904zM687.207 473.213c-26.357-.674-50.615-1.362-76.963-2.08-2.695-.073-4.863-2.031-4.844-4.399.361-54.854.703-109.678 1.064-164.512 0-2.407 2.197-4.448 4.873-4.609 24.795-1.528 56.563-3.75 81.367-5.176 30.479-2.017 63.018 7.095 63.232 47.686.078 15.269-7.441 30.439-20.391 40.034-.43.298-.674.796-.645 1.313 0 .542.273 1.069.781 1.294 15.732 6.821 24.697 18.643 23.555 40.986-2.148 42.754-37.93 49.829-72.012 49.463h-.017zm-72.646 190.058c-45.596 1.836-82.314-32.734-82.314-79.668 0-48.994 30.117-82.3 80.391-82.3 44.531 0 79.141 32.437 79.141 79.839-.002 47.53-33.918 80.381-77.218 82.129zm-140.66-196.093a4.348 4.348 0 0 1-4.233-4.36c.43-50.493.84-100.962 1.284-151.46.059-2.393 1.914-4.351 4.292-4.517 36.992-2.529 73.975-4.927 110.967-7.295 2.607-.151 4.736 1.597 4.736 4.004l-.244 32.769c-.02 2.705-2.158 5.034-4.766 5.156-28.984 1.382-43.027 2.08-70.215 3.447-.635.029-1.152.61-1.162 1.274l-.137 16.782c0 .703.518 1.25 1.162 1.23 23.496-.864 36.221-1.284 61.055-2.173 2.598-.073 4.707 2.139 4.678 4.951l-.215 34.063c-.01 2.813-2.168 5.103-4.766 5.103l-61.074.176c-.645 0-1.182.571-1.182 1.26l-.137 18.691a1.206 1.206 0 0 0 1.133 1.255c27.207.303 41.26.503 70.273.84 2.656.088 4.766 2.319 4.707 4.995l-.215 32.783c-.029 2.397-2.168 4.233-4.795 4.155-37.049-1.02-74.09-2.075-111.146-3.129zm-39.179 206.611c-52.539 1.66-91.328-32.432-91.328-87.676 0-51.729 33.604-89.575 90.527-89.575 48.32 0 86.411 38.091 86.411 87.222 0 53.252-37.09 88.467-85.61 90.029zM340.2 540.459a3.716 3.716 0 0 1-3.711 3.486l-44.238-.488c-.82 0-1.484.654-1.484 1.484l.801 127.773a3.728 3.728 0 0 1-3.442 3.701l-44.976 3.115c-2.051.195-3.867-1.318-4.063-3.379a3.47 3.47 0 0 1-.015-.322l.518-131.367a1.495 1.495 0 0 0-1.494-1.484l-48.169-1.055a3.685 3.685 0 0 1-3.716-3.438l-1.694-41.914a3.741 3.741 0 0 1 3.54-3.931h.327l149.268 4.019c2.1.063 3.75 1.807 3.633 3.882l-1.085 39.918zm-88.716-218.188c10.928-.708 23.701-1.299 35.098-2.114 1.567-.122 2.925 1.074 3.306 2.925 5.566 27.163 11.494 51.035 17.373 78.12.156.742.688 5.889.879 5.928.176 0 .723-5.21.889-5.928 6.855-28.057 13.584-52.905 20.264-81.03.444-1.87 1.899-3.252 3.555-3.369 13.159-.938 21.191-1.421 34.932-2.393 1.719-.137 3.223 1.05 3.657 2.852 6.86 28.867 13.638 54.546 20.356 83.438.176.786.786 5.996.981 5.996.19 0 .806-5.234.991-6.021 7.085-29.888 14.175-56.558 21.411-86.44a4.5 4.5 0 0 1 3.95-3.442c13.252-.923 22.598-1.382 36.343-2.324a3.8 3.8 0 0 1 3.335 1.436c.796 1.016 1.045 2.363.659 3.691-13.711 49.551-26.719 99.297-40.513 148.833a3.978 3.978 0 0 1-3.916 2.939c-16.23-.464-26.768-.664-42.236-1.108-1.699-.044-3.198-1.343-3.652-3.159-6.123-24.829-12.832-46.431-18.955-71.255-.176-.718-.757-4.238-.923-4.238-.171.015-.747 3.564-.938 4.292-6.392 24.448-13.481 45.654-19.766 70.127-.454 1.782-1.909 2.998-3.506 2.969-14.546-.4-27.544-.459-41.353-.82-1.528-.029-2.866-1.338-3.271-3.125-9.99-43.809-22.041-87.383-32.139-131.172-.893-3.865 1.148-5.472 3.189-5.608zm573.936 113.31 30.82-356.86-725.42 112.885 61.445 231.035H58.579l137.1 421.011 320.776-47.617v125.244l371.816-170.527 53.154-315.171H825.42zm-170.313-74.297c10.635-.337 16.162-.522 27.012-.845 12.227-.386 18.359-5.503 18.359-14.619 0-6.743-1.904-13.457-18.086-12.72-10.889.513-16.455.752-27.129 1.245a1.429 1.429 0 0 0-1.318 1.392l-.137 24.199c0 .752.586 1.377 1.299 1.353v-.005zM433.921 543.896c-22.305-.225-38.003 15.078-37.969 41.621.039 26.523 16.152 42.5 38.564 41.631 22.383-.859 37.52-17.373 37.368-42.715-.131-25.331-15.658-40.292-37.963-40.537zm179.37.86c-20.664 0-34.57 14.57-34.307 38.145.244 23.594 14.844 38.438 35.059 37.559s33.564-16.23 33.564-38.613c0-23.009-12.968-37.091-34.316-37.091zm71.621-139.727c-12.1.024-18.242.19-30.059.229-.732 0-1.318.625-1.318 1.387l-.156 24.795c0 .723.566 1.323 1.299 1.348l30.098.503c17.109.205 19.297-7.759 19.297-13.833.019-10.244-6.29-14.468-19.161-14.429z"/></svg>