<svg xmlns="http://www.w3.org/2000/svg" xml:space="preserve" width="400" height="400" viewBox="0 0 400 400"><path d="M0 0h-100.58c-12.491 0-22.711 10.22-22.711 22.711v100.58c0 12.491 10.22 22.711 22.711 22.711H0c12.491 0 22.711-10.22 22.711-22.711V22.711C22.711 10.22 12.491 0 0 0" style="fill:#ffbc00;fill-opacity:1;fill-rule:nonzero;stroke:none" transform="matrix(2.73969 0 0 -2.73969 337.779 400)"/><path d="m0 0-13.674-26.936h-55.727v92.882h92.879V10.218Z" style="fill:#000;fill-opacity:1;fill-rule:nonzero;stroke:none" transform="matrix(2.73969 0 0 -2.73969 262.908 254.633)"/><path d="M0 0v-37.153L37.151 0Z" style="fill:#fff;fill-opacity:1;fill-rule:nonzero;stroke:none" transform="matrix(2.73969 0 0 -2.73969 225.447 226.64)"/></svg>