<svg xmlns="http://www.w3.org/2000/svg" width="65" height="22" fill="none"><path fill="#00C9E4" d="M44.935 3.777h18.373L65 0H44.935v3.777ZM48.682 9.096h14.656V5.349H44.935V14.444h8.159v1.602h3.747v-1.601h6.467L65 10.697H48.682V9.096ZM48.682 15.955h-3.747v2.297a2.98 2.98 0 0 0 2.992 2.992h15.38L65 17.466H48.682v-1.51ZM27.74 0h-3.777v17.497a3.779 3.779 0 0 0 3.777 3.777h7.857l1.692-3.777H27.74V0Z"/><path fill="#00C9E4" d="M38.921 9.67h-3.384l-1.692 3.747h5.076v7.857H42.7V0L38.92 2.025V9.67ZM12.299 7.675 8.552 6.406v11.12H0v3.748h14.565l1.693-3.747h-3.96V7.675Z"/><path fill="#00C9E4" d="M2.66 0H0v3.777h2.66v9.61l3.777 1.269V3.777h8.128L16.258 0H2.659ZM17.92 21.334h3.747V0L17.92 2.115v19.22Z"/></svg>